<svg width="32" height="32" viewBox="0 0 32 32" fill="none" xmlns="http://www.w3.org/2000/svg">
  <!-- Background -->
  <rect width="32" height="32" rx="4" fill="#0a0a0a"/>
  
  <!-- CyberX Design matching navbar style -->
  <g>
    <!-- X letter in Press Start 2P style -->
    <path d="M12 10H20M12 22H20M12 10L20 22M20 10L12 22" stroke="#00d4ff" stroke-width="2.5" stroke-linecap="square"/>
    
    <!-- Glow effect for X -->
    <path d="M12 10H20M12 22H20M12 10L20 22M20 10L12 22" stroke="#00d4ff" stroke-width="1" stroke-linecap="square" stroke-opacity="0.5" filter="blur(1px)"/>
    <path d="M12 10H20M12 22H20M12 10L20 22M20 10L12 22" stroke="#00d4ff" stroke-width="0.5" stroke-linecap="square" stroke-opacity="0.3" filter="blur(2px)"/>
    
    <!-- Cyber circuit elements -->
    <path d="M6 6H10M22 6H26M6 26H10M22 26H26" stroke="#00ff41" stroke-width="1.5" stroke-linecap="square"/>
    <path d="M6 6V10M6 22V26M26 6V10M26 22V26" stroke="#00ff41" stroke-width="1.5" stroke-linecap="square"/>
    
    <!-- Corner accents -->
    <rect x="4" y="4" width="4" height="4" fill="none" stroke="#00ff41" stroke-width="1"/>
    <rect x="24" y="4" width="4" height="4" fill="none" stroke="#00ff41" stroke-width="1"/>
    <rect x="4" y="24" width="4" height="4" fill="none" stroke="#00ff41" stroke-width="1"/>
    <rect x="24" y="24" width="4" height="4" fill="none" stroke="#00ff41" stroke-width="1"/>
    
    <!-- Glow effects for circuit elements -->
    <rect width="32" height="32" rx="4" fill="#00ff41" fill-opacity="0.1"/>
    <rect width="32" height="32" rx="4" stroke="#00ff41" stroke-opacity="0.3" stroke-width="1"/>
  </g>
</svg>